<svg xmlns="http://www.w3.org/2000/svg" width="1778" height="576" viewBox="0 0 1778 576">
  <defs>
    <linearGradient id="g" x1="0%" y1="0%" x2="100%" y2="0%">
      <stop offset="0%" stop-color="#1d74f5"/>
      <stop offset="100%" stop-color="#3196ff"/>
    </linearGradient>
  </defs>
  <path d="M 656 212 L 654 214 L 654 218 L 655 219 L 670 220 L 685 226 L 689 230 L 689 233 L 692 235 L 698 243 L 699 249 L 698 250 L 679 249 L 667 252 L 658 263 L 656 264 L 653 269 L 649 284 L 652 309 L 659 319 L 660 324 L 670 334 L 675 336 L 678 339 L 684 342 L 685 344 L 691 346 L 711 346 L 716 344 L 721 344 L 728 339 L 728 334 L 726 333 L 705 333 L 702 331 L 699 331 L 697 329 L 694 329 L 675 310 L 675 305 L 676 304 L 683 304 L 684 303 L 690 303 L 699 301 L 703 298 L 715 282 L 715 277 L 718 269 L 718 257 L 717 256 L 717 248 L 712 236 L 712 232 L 707 225 L 704 224 L 696 216 L 694 216 L 690 213 L 678 209 L 669 209 L 664 211 Z M 679 264 L 687 264 L 689 265 L 695 272 L 695 279 L 692 282 L 692 284 L 687 288 L 680 288 L 673 283 L 673 281 L 671 280 L 671 274 L 674 269 Z M 752 86 L 732 85 L 699 126 L 669 127 L 632 86 L 618 87 L 583 103 L 578 112 L 583 165 L 562 186 L 507 182 L 489 217 L 486 237 L 521 264 L 529 276 L 528 303 L 487 339 L 496 372 L 512 393 L 562 387 L 588 409 L 584 465 L 610 480 L 639 487 L 672 443 L 706 443 L 739 482 L 758 481 L 793 462 L 795 454 L 788 407 L 811 383 L 865 387 L 880 365 L 887 333 L 877 321 L 845 298 L 844 271 L 845 265 L 885 230 L 877 199 L 861 176 L 808 182 L 785 161 L 788 103 Z M 674 192 L 698 192 L 703 194 L 710 194 L 738 207 L 760 228 L 764 236 L 768 240 L 770 248 L 772 249 L 773 254 L 777 261 L 779 275 L 779 295 L 776 310 L 770 326 L 766 330 L 764 336 L 755 347 L 750 349 L 748 354 L 739 362 L 723 370 L 715 372 L 711 375 L 696 378 L 680 378 L 663 375 L 657 371 L 653 371 L 647 367 L 638 364 L 625 354 L 625 352 L 616 344 L 609 335 L 607 329 L 605 328 L 601 320 L 600 314 L 596 306 L 596 294 L 594 287 L 595 270 L 598 257 L 600 255 L 603 244 L 607 238 L 609 237 L 613 230 L 618 226 L 619 222 L 633 209 L 652 198 Z M 23 52 L 24 68 L 60 78 L 85 108 L 85 420 L 74 459 L 51 474 L 22 478 L 22 493 L 179 492 L 177 477 L 134 467 L 116 439 L 116 144 L 278 344 L 359 457 L 414 514 L 473 552 L 518 567 L 569 562 L 596 546 L 592 540 L 561 547 L 531 543 L 495 523 L 441 465 L 423 420 L 422 103 L 438 78 L 475 69 L 476 51 L 328 54 L 329 68 L 363 73 L 380 84 L 389 102 L 390 313 L 180 51 Z M 1551 43 L 1542 42 L 1536 49 L 1359 442 L 1333 469 L 1308 476 L 1307 493 L 1454 494 L 1455 477 L 1418 471 L 1405 462 L 1401 453 L 1406 413 L 1425 371 L 1434 368 L 1576 369 L 1605 431 L 1611 461 L 1596 475 L 1562 477 L 1562 494 L 1777 492 L 1777 478 L 1747 466 L 1719 427 Z M 1501 202 L 1504 202 L 1505 204 L 1507 205 L 1511 213 L 1516 230 L 1522 239 L 1526 252 L 1528 253 L 1528 256 L 1532 263 L 1533 268 L 1537 274 L 1539 281 L 1541 283 L 1541 286 L 1543 288 L 1544 293 L 1547 297 L 1549 305 L 1551 307 L 1553 314 L 1561 329 L 1562 334 L 1564 336 L 1564 339 L 1562 341 L 1463 341 L 1462 342 L 1449 341 L 1448 342 L 1442 342 L 1439 340 L 1440 335 L 1445 328 L 1445 325 L 1448 321 L 1449 316 L 1452 311 L 1454 304 L 1457 301 L 1457 299 L 1461 292 L 1461 289 L 1463 286 L 1463 284 L 1477 256 L 1478 251 L 1482 244 L 1482 241 L 1484 239 L 1484 237 L 1487 231 L 1493 222 L 1495 213 L 1499 204 Z M 674 68 L 758 42 L 816 40 L 872 56 L 914 82 L 939 111 L 1101 485 L 1110 501 L 1121 502 L 1128 497 L 1303 108 L 1324 81 L 1356 68 L 1358 53 L 1212 51 L 1211 67 L 1247 73 L 1263 85 L 1265 113 L 1162 350 L 1056 121 L 1009 65 L 970 36 L 909 13 L 822 8 L 761 20 L 705 46 Z" fill="url(#g)" fill-rule="evenodd"/>
</svg>